<svg xmlns="http://www.w3.org/2000/svg" width="1100" height="560" viewBox="0 0 1100 560"><rect width="100%" height="100%" rx="28" fill="#f8fafc"/><text x="55" y="58" font-family="Arial,sans-serif" font-size="28" font-weight="800" fill="#111827">HubSpot Contact Strategy</text><text x="55" y="86" font-family="Arial,sans-serif" font-size="15" fill="#667085">email থাকলে contact identity হিসেবে ব্যবহার করা যায়</text><rect x="55" y="190" width="250" height="110" rx="20" fill="#fff" stroke="#d9e1eb" stroke-width="2"/><rect x="55" y="190" width="8" height="110" rx="4" fill="#3b82f6"/><text x="81" y="225" font-family="Arial,sans-serif" font-size="22" font-weight="700" fill="#111827">Lead</text><text x="81" y="252" font-family="Arial,sans-serif" font-size="14" fill="#667085">email + properties</text><defs><marker id="a" markerWidth="10" markerHeight="10" refX="8" refY="3" orient="auto"><path d="M0,0 L0,6 L9,3 z" fill="#8fa2b8"/></marker></defs><line x1="305" y1="245" x2="420" y2="245" stroke="#8fa2b8" stroke-width="4" marker-end="url(#a)"/><rect x="420" y="175" width="280" height="140" rx="20" fill="#fff8e8" stroke="#d9e1eb" stroke-width="2"/><rect x="420" y="175" width="8" height="140" rx="4" fill="#ff7a59"/><text x="446" y="210" font-family="Arial,sans-serif" font-size="22" font-weight="700" fill="#111827">Create / Update</text><text x="446" y="237" font-family="Arial,sans-serif" font-size="14" fill="#667085">email as identifier</text><defs><marker id="a" markerWidth="10" markerHeight="10" refX="8" refY="3" orient="auto"><path d="M0,0 L0,6 L9,3 z" fill="#8fa2b8"/></marker></defs><line x1="700" y1="245" x2="820" y2="245" stroke="#8fa2b8" stroke-width="4" marker-end="url(#a)"/><rect x="820" y="190" width="230" height="110" rx="20" fill="#f3fbf7" stroke="#d9e1eb" stroke-width="2"/><rect x="820" y="190" width="8" height="110" rx="4" fill="#22a06b"/><text x="846" y="225" font-family="Arial,sans-serif" font-size="22" font-weight="700" fill="#111827">One CRM Contact</text><text x="846" y="252" font-family="Arial,sans-serif" font-size="14" fill="#667085">source + campaign updated</text></svg>