<svg xmlns="http://www.w3.org/2000/svg" width="1100" height="490" viewBox="0 0 1100 490"><rect width="100%" height="100%" rx="28" fill="#f8fafc"/><text x="55" y="58" font-family="Arial,sans-serif" font-size="28" font-weight="800" fill="#111827">Source Tracking</text><text x="55" y="86" font-family="Arial,sans-serif" font-size="15" fill="#667085">Lead কোথা থেকে এসেছে সেটা preserve করুন</text><rect x="70" y="150" width="290" height="105" rx="20" fill="#fff" stroke="#d9e1eb" stroke-width="2"/><rect x="70" y="150" width="8" height="105" rx="4" fill="#3b82f6"/><text x="96" y="185" font-family="Arial,sans-serif" font-size="22" font-weight="700" fill="#111827">source</text><text x="96" y="212" font-family="Arial,sans-serif" font-size="14" fill="#667085">website / meta</text><rect x="405" y="150" width="290" height="105" rx="20" fill="#fff" stroke="#d9e1eb" stroke-width="2"/><rect x="405" y="150" width="8" height="105" rx="4" fill="#3b82f6"/><text x="431" y="185" font-family="Arial,sans-serif" font-size="22" font-weight="700" fill="#111827">utm_source</text><text x="431" y="212" font-family="Arial,sans-serif" font-size="14" fill="#667085">facebook / google</text><rect x="740" y="150" width="290" height="105" rx="20" fill="#fff" stroke="#d9e1eb" stroke-width="2"/><rect x="740" y="150" width="8" height="105" rx="4" fill="#3b82f6"/><text x="766" y="185" font-family="Arial,sans-serif" font-size="22" font-weight="700" fill="#111827">utm_campaign</text><text x="766" y="212" font-family="Arial,sans-serif" font-size="14" fill="#667085">campaign name/id</text><rect x="70" y="315" width="290" height="105" rx="20" fill="#fff" stroke="#d9e1eb" stroke-width="2"/><rect x="70" y="315" width="8" height="105" rx="4" fill="#8b5cf6"/><text x="96" y="350" font-family="Arial,sans-serif" font-size="22" font-weight="700" fill="#111827">form_id</text><text x="96" y="377" font-family="Arial,sans-serif" font-size="14" fill="#667085">Meta lead form</text><rect x="405" y="315" width="290" height="105" rx="20" fill="#fff" stroke="#d9e1eb" stroke-width="2"/><rect x="405" y="315" width="8" height="105" rx="4" fill="#8b5cf6"/><text x="431" y="350" font-family="Arial,sans-serif" font-size="22" font-weight="700" fill="#111827">ad_id</text><text x="431" y="377" font-family="Arial,sans-serif" font-size="14" fill="#667085">optional ad context</text><rect x="740" y="315" width="290" height="105" rx="20" fill="#fff" stroke="#d9e1eb" stroke-width="2"/><rect x="740" y="315" width="8" height="105" rx="4" fill="#8b5cf6"/><text x="766" y="350" font-family="Arial,sans-serif" font-size="22" font-weight="700" fill="#111827">landing_page</text><text x="766" y="377" font-family="Arial,sans-serif" font-size="14" fill="#667085">website URL</text></svg>