<svg xmlns="http://www.w3.org/2000/svg" width="1100" height="430" viewBox="0 0 1100 430"><rect width="100%" height="100%" rx="28" fill="#f8fafc"/><text x="55" y="58" font-family="Arial,sans-serif" font-size="28" font-weight="800" fill="#111827">CRM Task, Not a Random Reminder</text><text x="55" y="86" font-family="Arial,sans-serif" font-size="15" fill="#667085">Attach next action to the deal itself</text><rect x="80" y="170" width="245" height="110" rx="20" fill="#fff" stroke="#d9e1eb" stroke-width="2"/><rect x="80" y="170" width="8" height="110" rx="4" fill="#10b981"/><text x="104" y="204" font-family="Arial,sans-serif" font-size="19" font-weight="700" fill="#111827">Stage</text><text x="104" y="230" font-family="Arial,sans-serif" font-size="12" fill="#667085">QUALIFIED</text><defs><marker id="m611407" markerWidth="10" markerHeight="10" refX="8" refY="3" orient="auto"><path d="M0,0 L0,6 L9,3 z" fill="#91a3b5"/></marker></defs><line x1="325" y1="225" x2="470" y2="225" stroke="#91a3b5" stroke-width="4" marker-end="url(#m611407)"/><rect x="470" y="170" width="260" height="110" rx="20" fill="#fff" stroke="#d9e1eb" stroke-width="2"/><rect x="470" y="170" width="8" height="110" rx="4" fill="#0ea5e9"/><text x="494" y="204" font-family="Arial,sans-serif" font-size="19" font-weight="700" fill="#111827">HubSpot Engagement</text><text x="494" y="230" font-family="Arial,sans-serif" font-size="12" fill="#667085">Create Task</text><defs><marker id="m474043" markerWidth="10" markerHeight="10" refX="8" refY="3" orient="auto"><path d="M0,0 L0,6 L9,3 z" fill="#91a3b5"/></marker></defs><line x1="730" y1="225" x2="850" y2="225" stroke="#91a3b5" stroke-width="4" marker-end="url(#m474043)"/><rect x="850" y="170" width="180" height="110" rx="20" fill="#fff" stroke="#d9e1eb" stroke-width="2"/><rect x="850" y="170" width="8" height="110" rx="4" fill="#8b5cf6"/><text x="874" y="204" font-family="Arial,sans-serif" font-size="19" font-weight="700" fill="#111827">Deal</text><text x="874" y="230" font-family="Arial,sans-serif" font-size="12" fill="#667085">associated</text></svg>