<svg xmlns="http://www.w3.org/2000/svg" width="1100" height="470" viewBox="0 0 1100 470"><rect width="100%" height="100%" rx="28" fill="#f8fafc"/><text x="55" y="58" font-family="Arial,sans-serif" font-size="28" font-weight="800" fill="#111827">Production Architecture</text><text x="55" y="86" font-family="Arial,sans-serif" font-size="15" fill="#667085">Event-safe, state-aware, auditable</text><rect x="40" y="205" width="145" height="90" rx="20" fill="#fff" stroke="#d9e1eb" stroke-width="2"/><rect x="40" y="205" width="8" height="90" rx="4" fill="#10b981"/><text x="64" y="239" font-family="Arial,sans-serif" font-size="19" font-weight="700" fill="#111827">HubSpot</text><text x="64" y="265" font-family="Arial,sans-serif" font-size="12" fill="#667085">event</text><defs><marker id="m397748" markerWidth="10" markerHeight="10" refX="8" refY="3" orient="auto"><path d="M0,0 L0,6 L9,3 z" fill="#91a3b5"/></marker></defs><line x1="185" y1="250" x2="218" y2="250" stroke="#91a3b5" stroke-width="4" marker-end="url(#m397748)"/><rect x="230" y="205" width="145" height="90" rx="20" fill="#fff" stroke="#d9e1eb" stroke-width="2"/><rect x="230" y="205" width="8" height="90" rx="4" fill="#f59e0b"/><text x="254" y="239" font-family="Arial,sans-serif" font-size="19" font-weight="700" fill="#111827">Dedupe</text><text x="254" y="265" font-family="Arial,sans-serif" font-size="12" fill="#667085">retry</text><defs><marker id="m40398" markerWidth="10" markerHeight="10" refX="8" refY="3" orient="auto"><path d="M0,0 L0,6 L9,3 z" fill="#91a3b5"/></marker></defs><line x1="375" y1="250" x2="408" y2="250" stroke="#91a3b5" stroke-width="4" marker-end="url(#m40398)"/><rect x="420" y="205" width="145" height="90" rx="20" fill="#fff" stroke="#d9e1eb" stroke-width="2"/><rect x="420" y="205" width="8" height="90" rx="4" fill="#0ea5e9"/><text x="444" y="239" font-family="Arial,sans-serif" font-size="19" font-weight="700" fill="#111827">Re-fetch</text><text x="444" y="265" font-family="Arial,sans-serif" font-size="12" fill="#667085">truth</text><defs><marker id="m847914" markerWidth="10" markerHeight="10" refX="8" refY="3" orient="auto"><path d="M0,0 L0,6 L9,3 z" fill="#91a3b5"/></marker></defs><line x1="565" y1="250" x2="598" y2="250" stroke="#91a3b5" stroke-width="4" marker-end="url(#m847914)"/><rect x="610" y="205" width="145" height="90" rx="20" fill="#fff" stroke="#d9e1eb" stroke-width="2"/><rect x="610" y="205" width="8" height="90" rx="4" fill="#ef4444"/><text x="634" y="239" font-family="Arial,sans-serif" font-size="19" font-weight="700" fill="#111827">Guard</text><text x="634" y="265" font-family="Arial,sans-serif" font-size="12" fill="#667085">stale</text><defs><marker id="m835096" markerWidth="10" markerHeight="10" refX="8" refY="3" orient="auto"><path d="M0,0 L0,6 L9,3 z" fill="#91a3b5"/></marker></defs><line x1="755" y1="250" x2="788" y2="250" stroke="#91a3b5" stroke-width="4" marker-end="url(#m835096)"/><rect x="800" y="205" width="145" height="90" rx="20" fill="#fff" stroke="#d9e1eb" stroke-width="2"/><rect x="800" y="205" width="8" height="90" rx="4" fill="#8b5cf6"/><text x="824" y="239" font-family="Arial,sans-serif" font-size="19" font-weight="700" fill="#111827">Map</text><text x="824" y="265" font-family="Arial,sans-serif" font-size="12" fill="#667085">stage</text><defs><marker id="m500069" markerWidth="10" markerHeight="10" refX="8" refY="3" orient="auto"><path d="M0,0 L0,6 L9,3 z" fill="#91a3b5"/></marker></defs><line x1="945" y1="250" x2="978" y2="250" stroke="#91a3b5" stroke-width="4" marker-end="url(#m500069)"/><rect x="990" y="205" width="145" height="90" rx="20" fill="#fff" stroke="#d9e1eb" stroke-width="2"/><rect x="990" y="205" width="8" height="90" rx="4" fill="#059669"/><text x="1014" y="239" font-family="Arial,sans-serif" font-size="19" font-weight="700" fill="#111827">Action</text><text x="1014" y="265" font-family="Arial,sans-serif" font-size="12" fill="#667085">task</text></svg>