<svg xmlns="http://www.w3.org/2000/svg" width="1200" height="620" viewBox="0 0 1200 620">
<defs>
 <linearGradient id="bg" x1="0" x2="1"><stop stop-color="#15161b"/><stop offset="1" stop-color="#22242c"/></linearGradient>
 <linearGradient id="red" x1="0" x2="1"><stop stop-color="#ff6d5a"/><stop offset="1" stop-color="#ff4e45"/></linearGradient>
 <filter id="sh"><feDropShadow dx="0" dy="10" stdDeviation="12" flood-opacity=".25"/></filter>
</defs>
<rect width="1200" height="620" rx="34" fill="url(#bg)"/>
<circle cx="1060" cy="95" r="180" fill="#ff4e45" opacity=".07"/><circle cx="120" cy="550" r="220" fill="#7756d8" opacity=".08"/>
<text x="600" y="95" text-anchor="middle" font-family="Arial" font-size="33" font-weight="700" fill="#fff">YOUTUBE METADATA GUARDRAILS</text><g filter="url(#sh)"><rect x="80" y="190" width="300" height="180" rx="24" fill="#352a2a" stroke="#454852"/><rect x="80" y="190" width="8" height="180" rx="4" fill="#ff6d5a"/><text x="230.0" y="277.0" text-anchor="middle" font-family="Arial,sans-serif" font-size="26" font-weight="700" fill="#fff">TITLE</text><text x="230.0" y="308.0" text-anchor="middle" font-family="Arial,sans-serif" font-size="19" fill="#aeb1bc">max 100 characters</text></g><g filter="url(#sh)"><rect x="450" y="190" width="300" height="180" rx="24" fill="#2b3040" stroke="#454852"/><rect x="450" y="190" width="8" height="180" rx="4" fill="#4f7cff"/><text x="600.0" y="277.0" text-anchor="middle" font-family="Arial,sans-serif" font-size="26" font-weight="700" fill="#fff">DESCRIPTION</text><text x="600.0" y="308.0" text-anchor="middle" font-family="Arial,sans-serif" font-size="19" fill="#aeb1bc">max 5000 bytes (API)</text></g><g filter="url(#sh)"><rect x="820" y="190" width="300" height="180" rx="24" fill="#2d352f" stroke="#454852"/><rect x="820" y="190" width="8" height="180" rx="4" fill="#31b98d"/><text x="970.0" y="277.0" text-anchor="middle" font-family="Arial,sans-serif" font-size="26" font-weight="700" fill="#fff">TAGS</text><text x="970.0" y="308.0" text-anchor="middle" font-family="Arial,sans-serif" font-size="19" fill="#aeb1bc">max 500 characters</text></g><text x="600" y="470" text-anchor="middle" font-family="Arial" font-size="23" fill="#c8cad3">Keep comfortably below limits — especially Bangla text in UTF-8.</text></svg>