<svg xmlns="http://www.w3.org/2000/svg" width="1200" height="390" viewBox="0 0 1200 390"><defs><filter id="s" x="-20%" y="-20%" width="140%" height="140%"><feDropShadow dx="0" dy="5" stdDeviation="8" flood-opacity=".08"/></filter></defs><rect width="100%" height="100%" rx="28" fill="#fbfaf7"/><text x="55" y="58" font-family="Arial,sans-serif" font-size="28" font-weight="700" fill="#1e293b">Observability model</text><text x="55" y="88" font-family="Arial,sans-serif" font-size="15" fill="#64748b">Technical success and business success are both visible</text><g filter="url(#s)"><rect x="55.0" y="132.0" width="348.7" height="97.0" rx="17" fill="#fff" stroke="#e5e1d7"/><rect x="55.0" y="132.0" width="8" height="97.0" rx="4" fill="#22d3ee"/><text x="79.0" y="169.0" font-family="Arial,sans-serif" font-size="19" font-weight="700" fill="#1e293b">TRACE</text><text x="79.0" y="197.0" font-family="Arial,sans-serif" font-size="13.5" fill="#64748b">trace_id</text></g><g filter="url(#s)"><rect x="425.7" y="132.0" width="348.7" height="97.0" rx="17" fill="#fff" stroke="#e5e1d7"/><rect x="425.7" y="132.0" width="8" height="97.0" rx="4" fill="#f59e0b"/><text x="449.7" y="169.0" font-family="Arial,sans-serif" font-size="19" font-weight="700" fill="#1e293b">EXECUTION</text><text x="449.7" y="197.0" font-family="Arial,sans-serif" font-size="13.5" fill="#64748b">n8n execution</text></g><g filter="url(#s)"><rect x="796.3" y="132.0" width="348.7" height="97.0" rx="17" fill="#fff" stroke="#e5e1d7"/><rect x="796.3" y="132.0" width="8" height="97.0" rx="4" fill="#f59e0b"/><text x="820.3" y="169.0" font-family="Arial,sans-serif" font-size="19" font-weight="700" fill="#1e293b">BUSINESS</text><text x="820.3" y="197.0" font-family="Arial,sans-serif" font-size="13.5" fill="#64748b">domain status</text></g><g filter="url(#s)"><rect x="55.0" y="251.0" width="348.7" height="97.0" rx="17" fill="#fff" stroke="#e5e1d7"/><rect x="55.0" y="251.0" width="8" height="97.0" rx="4" fill="#22d3ee"/><text x="79.0" y="288.0" font-family="Arial,sans-serif" font-size="19" font-weight="700" fill="#1e293b">INCIDENT</text><text x="79.0" y="316.0" font-family="Arial,sans-serif" font-size="13.5" fill="#64748b">P27</text></g><g filter="url(#s)"><rect x="425.7" y="251.0" width="348.7" height="97.0" rx="17" fill="#fff" stroke="#e5e1d7"/><rect x="425.7" y="251.0" width="8" height="97.0" rx="4" fill="#f59e0b"/><text x="449.7" y="288.0" font-family="Arial,sans-serif" font-size="19" font-weight="700" fill="#1e293b">SLO</text><text x="449.7" y="316.0" font-family="Arial,sans-serif" font-size="13.5" fill="#64748b">latency/success</text></g><g filter="url(#s)"><rect x="796.3" y="251.0" width="348.7" height="97.0" rx="17" fill="#fff" stroke="#e5e1d7"/><rect x="796.3" y="251.0" width="8" height="97.0" rx="4" fill="#f59e0b"/><text x="820.3" y="288.0" font-family="Arial,sans-serif" font-size="19" font-weight="700" fill="#1e293b">REPORT</text><text x="820.3" y="316.0" font-family="Arial,sans-serif" font-size="13.5" fill="#64748b">P26</text></g></svg>