<svg xmlns="http://www.w3.org/2000/svg" width="1100" height="520" viewBox="0 0 1100 520"><style>.t{font-family:Arial,sans-serif;fill:#17181c}.mut{fill:#6f7077}.sm{font-size:14px}.xs{font-size:11px}.md{font-size:17px;font-weight:700}.b{font-weight:700}.box{fill:#fff;stroke:#dedbd4;stroke-width:1.5}.soft{fill:#fff7e6}.dark{fill:#17181c}.gold{fill:#e6a229}.green{fill:#2a9d68}.blue{fill:#4c91d9}.red{fill:#e45a4f}.line{stroke:#bcb7ad;stroke-width:2;fill:none}.dash{stroke:#c4b06f;stroke-width:2;stroke-dasharray:6 5;fill:none}</style>
<rect width="1100" height="500" rx="26" fill="#f8f7f3"/><text x="65" y="65" class="t md">Production execution history</text><line x1="130" y1="170" x2="930" y2="170" class="line"/>
<circle cx="150" cy="170" r="22" fill="#2a9d68"/><text x="141" y="176" fill="#fff" font-size="15">✓</text><text x="105" y="220" class="t xs b">Aug 10</text><text x="115" y="242" class="t xs mut">21:00</text><circle cx="360" cy="170" r="22" fill="#2a9d68"/><text x="351" y="176" fill="#fff" font-size="15">✓</text><text x="315" y="220" class="t xs b">Aug 11</text><text x="325" y="242" class="t xs mut">21:00</text><circle cx="570" cy="170" r="22" fill="#2a9d68"/><text x="561" y="176" fill="#fff" font-size="15">✓</text><text x="525" y="220" class="t xs b">Aug 12</text><text x="535" y="242" class="t xs mut">21:00</text><circle cx="780" cy="170" r="22" fill="#2a9d68"/><text x="771" y="176" fill="#fff" font-size="15">✓</text><text x="735" y="220" class="t xs b">Aug 13</text><text x="745" y="242" class="t xs mut">21:00</text><circle cx="950" cy="170" r="22" fill="#e6a229"/><text x="942" y="176" fill="#fff" font-size="15">→</text><text x="905" y="220" class="t xs b">Aug 14</text><text x="912" y="242" class="t xs mut">next</text><rect x="120" y="315" width="860" height="100" rx="15" class="box"/><text x="150" y="350" class="t xs b">What to inspect</text><text x="150" y="378" class="t xs mut">Started time • status • each node output • duration • error details (if failed)</text>
</svg>