<svg xmlns="http://www.w3.org/2000/svg" width="1200" height="360" viewBox="0 0 1200 360"><defs><filter id="s" x="-20%" y="-20%" width="140%" height="140%"><feDropShadow dx="0" dy="5" stdDeviation="8" flood-opacity=".12"/></filter><marker id="a" markerWidth="10" markerHeight="10" refX="8" refY="3" orient="auto"><path d="M0,0 L0,6 L9,3 z" fill="#0f766e"/></marker></defs><rect width="100%" height="100%" rx="28" fill="#f8fafc"/><text x="55" y="60" font-family="Arial,sans-serif" font-size="28" font-weight="700" fill="#0f172a">Internal team gets the operational context</text><g filter="url(#s)"><rect x="80" y="150" width="250" height="105" rx="18" fill="#ffffff" stroke="#cbd5e1"/><rect x="80" y="150" width="8" height="105" rx="4" fill="#14b8a6"/><text x="105" y="186" font-family="Arial,sans-serif" font-size="22" font-weight="700" fill="#0f172a">Onboarding Ready</text><text x="105" y="214" font-family="Arial,sans-serif" font-size="15" fill="#64748b">client + project</text></g><g filter="url(#s)"><rect x="475" y="150" width="250" height="105" rx="18" fill="#ffffff" stroke="#cbd5e1"/><rect x="475" y="150" width="8" height="105" rx="4" fill="#14b8a6"/><text x="500" y="186" font-family="Arial,sans-serif" font-size="22" font-weight="700" fill="#0f172a">Telegram</text><text x="500" y="214" font-family="Arial,sans-serif" font-size="15" fill="#64748b">owner notification</text></g><g filter="url(#s)"><rect x="870" y="150" width="250" height="105" rx="18" fill="#ffffff" stroke="#cbd5e1"/><rect x="870" y="150" width="8" height="105" rx="4" fill="#14b8a6"/><text x="895" y="186" font-family="Arial,sans-serif" font-size="22" font-weight="700" fill="#0f172a">Human Action</text><text x="895" y="214" font-family="Arial,sans-serif" font-size="15" fill="#64748b">check missing items</text></g><line x1="330" y1="202" x2="475" y2="202" stroke="#0f766e" stroke-width="4" marker-end="url(#a)"/><line x1="725" y1="202" x2="870" y2="202" stroke="#0f766e" stroke-width="4" marker-end="url(#a)"/></svg>