<svg xmlns="http://www.w3.org/2000/svg" width="1200" height="390" viewBox="0 0 1200 390"><defs><filter id="s" x="-20%" y="-20%" width="140%" height="140%"><feDropShadow dx="0" dy="5" stdDeviation="8" flood-opacity=".08"/></filter></defs><rect width="100%" height="100%" rx="28" fill="#f7faff"/><text x="55" y="58" font-family="Arial,sans-serif" font-size="28" font-weight="700" fill="#10233f">Manual-review conditions</text><g filter="url(#s)"><rect x="55.0" y="132.0" width="348.7" height="97.0" rx="17" fill="#fff" stroke="#dbe5f4"/><rect x="55.0" y="132.0" width="8" height="97.0" rx="4" fill="#84cc16"/><text x="79.0" y="169.0" font-family="Arial,sans-serif" font-size="19" font-weight="700" fill="#10233f">No email</text><text x="79.0" y="197.0" font-family="Arial,sans-serif" font-size="13.5" fill="#60708a">customer contact missing</text></g><g filter="url(#s)"><rect x="425.7" y="132.0" width="348.7" height="97.0" rx="17" fill="#fff" stroke="#dbe5f4"/><rect x="425.7" y="132.0" width="8" height="97.0" rx="4" fill="#2563eb"/><text x="449.7" y="169.0" font-family="Arial,sans-serif" font-size="19" font-weight="700" fill="#10233f">Unknown SKU</text><text x="449.7" y="197.0" font-family="Arial,sans-serif" font-size="13.5" fill="#60708a">routing rule absent</text></g><g filter="url(#s)"><rect x="796.3" y="132.0" width="348.7" height="97.0" rx="17" fill="#fff" stroke="#dbe5f4"/><rect x="796.3" y="132.0" width="8" height="97.0" rx="4" fill="#2563eb"/><text x="820.3" y="169.0" font-family="Arial,sans-serif" font-size="19" font-weight="700" fill="#10233f">No shipping</text><text x="820.3" y="197.0" font-family="Arial,sans-serif" font-size="13.5" fill="#60708a">physical order issue</text></g><g filter="url(#s)"><rect x="55.0" y="251.0" width="348.7" height="97.0" rx="17" fill="#fff" stroke="#dbe5f4"/><rect x="55.0" y="251.0" width="8" height="97.0" rx="4" fill="#84cc16"/><text x="79.0" y="288.0" font-family="Arial,sans-serif" font-size="19" font-weight="700" fill="#10233f">Duplicate conflict</text><text x="79.0" y="316.0" font-family="Arial,sans-serif" font-size="13.5" fill="#60708a">state mismatch</text></g><g filter="url(#s)"><rect x="425.7" y="251.0" width="348.7" height="97.0" rx="17" fill="#fff" stroke="#dbe5f4"/><rect x="425.7" y="251.0" width="8" height="97.0" rx="4" fill="#2563eb"/><text x="449.7" y="288.0" font-family="Arial,sans-serif" font-size="19" font-weight="700" fill="#10233f">Cancelled</text><text x="449.7" y="316.0" font-family="Arial,sans-serif" font-size="13.5" fill="#60708a">action already started</text></g><g filter="url(#s)"><rect x="796.3" y="251.0" width="348.7" height="97.0" rx="17" fill="#fff" stroke="#dbe5f4"/><rect x="796.3" y="251.0" width="8" height="97.0" rx="4" fill="#2563eb"/><text x="820.3" y="288.0" font-family="Arial,sans-serif" font-size="19" font-weight="700" fill="#10233f">API error</text><text x="820.3" y="316.0" font-family="Arial,sans-serif" font-size="13.5" fill="#60708a">retry exhausted</text></g></svg>